<?xml version="1.0" standalone="no"?>
<!DOCTYPE svg PUBLIC "-//W3C//DTD SVG 20010904//EN"
 "http://www.w3.org/TR/2001/REC-SVG-20010904/DTD/svg10.dtd">
<svg version="1.0" xmlns="http://www.w3.org/2000/svg"
 width="482.000000pt" height="302.000000pt" viewBox="0 0 482.000000 302.000000"
 preserveAspectRatio="xMidYMid meet">

<g transform="translate(0.000000,302.000000) scale(0.100000,-0.100000)"
fill="#000000" stroke="none">
<path d="M1328 2665 c-5 -5 -8 -185 -8 -400 l0 -392 -28 -41 c-64 -96 -268
-345 -289 -353 -37 -14 -68 6 -116 73 -64 89 -130 183 -177 252 l-40 58 0 399
0 399 -175 0 -175 0 0 -458 0 -458 63 -86 c85 -119 334 -469 380 -536 l37 -55
0 -388 0 -388 33 -3 c17 -2 96 -2 175 0 l142 3 0 372 c0 205 4 387 9 405 6 18
65 104 133 190 68 86 178 226 243 310 l120 152 5 -717 5 -718 175 0 175 0 5
380 5 380 160 108 c186 126 214 141 248 128 13 -5 72 -55 130 -111 l107 -102
0 -389 0 -389 885 0 885 0 -2 172 -3 173 -484 3 c-337 1 -488 6 -498 13 -28
24 -10 63 115 254 70 107 152 234 184 282 66 104 390 601 493 758 39 61 93
142 118 182 l47 72 0 230 0 231 -908 0 c-500 0 -1192 3 -1538 6 -346 4 -632 3
-636 -1z m1342 -558 c0 -198 -1 -204 -22 -224 -55 -48 -560 -373 -581 -373
-47 0 -47 1 -47 412 l0 388 325 0 325 0 0 -203z m1328 187 c12 -8 22 -24 22
-35 0 -10 -30 -65 -67 -122 -36 -56 -100 -154 -141 -217 -41 -63 -100 -153
-130 -200 -30 -47 -101 -155 -157 -240 -56 -85 -123 -189 -150 -230 -27 -41
-87 -133 -134 -205 -46 -71 -115 -177 -153 -234 l-68 -104 0 256 0 257 -135
131 c-74 73 -135 140 -135 149 0 20 26 44 105 98 74 49 116 93 147 152 22 43
23 56 27 303 l3 257 472 0 c411 0 474 -2 494 -16z"/>
</g>
</svg>
